<svg width="84" height="84" viewBox="0 0 84 84" fill="none" xmlns="http://www.w3.org/2000/svg">
<g clip-path="url(#clip0_558_12240)">
<rect x="44.9292" y="70.3267" width="5.20937" height="57.3031" transform="rotate(-180 44.9292 70.3267)" fill="url(#paint0_linear_558_12240)"/>
</g>
<g clip-path="url(#clip1_558_12240)">
<rect x="44.8916" y="66.6045" width="5.20937" height="26.0469" transform="rotate(135 44.8916 66.6045)" fill="url(#paint1_linear_558_12240)"/>
<rect x="26.4731" y="48.1865" width="5.20937" height="26.0469" transform="rotate(135 26.4731 48.1865)" fill="url(#paint2_linear_558_12240)"/>
</g>
<g clip-path="url(#clip2_558_12240)">
<rect x="43.4048" y="70.2881" width="5.20937" height="26.0469" transform="rotate(-135 43.4048 70.2881)" fill="url(#paint3_linear_558_12240)"/>
<rect x="61.8218" y="51.8701" width="5.20937" height="26.0469" transform="rotate(-135 61.8218 51.8701)" fill="url(#paint4_linear_558_12240)"/>
</g>
<defs>
<linearGradient id="paint0_linear_558_12240" x1="47.5339" y1="70.3267" x2="47.5339" y2="127.63" gradientUnits="userSpaceOnUse">
<stop/>
<stop offset="1" stop-opacity="0"/>
</linearGradient>
<linearGradient id="paint1_linear_558_12240" x1="47.4963" y1="66.6045" x2="47.4963" y2="92.6514" gradientUnits="userSpaceOnUse">
<stop/>
<stop offset="1" stop-opacity="0"/>
</linearGradient>
<linearGradient id="paint2_linear_558_12240" x1="29.0778" y1="48.1865" x2="29.0778" y2="74.2334" gradientUnits="userSpaceOnUse">
<stop/>
<stop offset="1" stop-opacity="0"/>
</linearGradient>
<linearGradient id="paint3_linear_558_12240" x1="46.0095" y1="70.2881" x2="46.0095" y2="96.335" gradientUnits="userSpaceOnUse">
<stop/>
<stop offset="1" stop-opacity="0"/>
</linearGradient>
<linearGradient id="paint4_linear_558_12240" x1="64.4265" y1="51.8701" x2="64.4265" y2="77.917" gradientUnits="userSpaceOnUse">
<stop/>
<stop offset="1" stop-opacity="0"/>
</linearGradient>
<clipPath id="clip0_558_12240">
<path d="M39.7202 13.0234H44.9296V67.7219C44.9296 69.1604 43.7634 70.3266 42.3249 70.3266C40.8864 70.3266 39.7202 69.1604 39.7202 67.7219V13.0234Z" fill="white"/>
</clipPath>
<clipPath id="clip1_558_12240">
<rect width="5.20937" height="26.0469" fill="white" transform="translate(22.79 51.8701) rotate(-45)"/>
</clipPath>
<clipPath id="clip2_558_12240">
<rect width="5.20937" height="26.0469" fill="white" transform="translate(58.1387 48.1865) rotate(45)"/>
</clipPath>
</defs>
</svg>
