<svg viewBox="0 0 322 36" fill="none" xmlns="http://www.w3.org/2000/svg">
  <path d="m158.2 20.31-3.67-8.82-3.67 8.82h7.34Zm7.85 8.63h-4.24l-2.14-5.1h-10.25l-2.1 5.1h-4.06l9.07-21.5h4.53l9.2 21.5ZM172 20.15c0 .98.14 1.83.43 2.54.28.7.68 1.28 1.2 1.75.5.46 1.11.8 1.81 1.01.7.22 1.47.32 2.3.32 1.68 0 2.98-.4 3.91-1.23.93-.82 1.39-2.16 1.39-4.02V7.43h3.99v12.69c0 1.58-.22 2.94-.66 4.1a7.42 7.42 0 0 1-1.88 2.87 7.6 7.6 0 0 1-2.97 1.68c-1.16.36-2.47.54-3.94.54-1.64 0-3.05-.21-4.24-.63a8 8 0 0 1-2.99-1.8 7.16 7.16 0 0 1-1.77-2.81c-.38-1.1-.58-2.33-.58-3.7V7.43h4v12.72ZM209.5 10.97h-7.54v17.97h-3.99V10.97h-7.4V7.44h18.93v3.53ZM215.06 18.18c0 1.04.17 2.03.5 2.95.33.92.82 1.72 1.48 2.4a7.19 7.19 0 0 0 2.44 1.6c.97.4 2.1.6 3.37.6 1.2 0 2.26-.18 3.2-.55a6.64 6.64 0 0 0 3.97-3.92c.38-.92.56-1.95.56-3.08 0-1.04-.17-2.03-.5-2.95a6.54 6.54 0 0 0-1.48-2.4 7.21 7.21 0 0 0-2.44-1.6 8.8 8.8 0 0 0-3.37-.6c-1.2 0-2.27.18-3.23.55a6.64 6.64 0 0 0-3.97 3.93 8.57 8.57 0 0 0-.53 3.07Zm-4.21-.03c0-1.62.28-3.1.85-4.46a10.05 10.05 0 0 1 2.4-3.5c1.05-.98 2.3-1.74 3.77-2.29 1.47-.54 3.12-.81 4.95-.81 1.79 0 3.42.26 4.9.77 1.48.51 2.74 1.24 3.78 2.2a9.76 9.76 0 0 1 2.43 3.48c.57 1.37.86 2.93.86 4.67 0 1.62-.28 3.1-.85 4.46a10.1 10.1 0 0 1-2.4 3.5c-1.05.98-2.31 1.74-3.79 2.29-1.48.54-3.12.81-4.93.81-1.79 0-3.42-.25-4.9-.75a9.72 9.72 0 0 1-6.2-5.68 12.1 12.1 0 0 1-.87-4.7ZM254.7 10.97h-7.53v17.97h-3.99V10.97h-7.4V7.44h18.93v3.53ZM272.97 19.63h-10.28v5.78h11.8v3.53h-15.8V7.44h15.46v3.53h-11.46v5.13h10.28v3.53ZM297.38 26.57c-.28.32-.67.65-1.17.96-.5.32-1.09.6-1.77.86a14.18 14.18 0 0 1-4.98.88c-1.83 0-3.49-.26-4.98-.77a10.87 10.87 0 0 1-3.81-2.2 9.82 9.82 0 0 1-2.46-3.48 11.8 11.8 0 0 1-.88-4.67c0-1.62.29-3.1.86-4.46.58-1.35 1.4-2.51 2.46-3.5a11.2 11.2 0 0 1 3.85-2.29 14.7 14.7 0 0 1 5.02-.81c1.77 0 3.28.21 4.54.63a12 12 0 0 1 2.87 1.3v5.35a8.88 8.88 0 0 0-2.95-2.58 9.87 9.87 0 0 0-2.08-.85 9.27 9.27 0 0 0-5.67.23 6.55 6.55 0 0 0-4.05 3.92 8.46 8.46 0 0 0-.54 3.09c0 1.04.17 2.02.5 2.93a6.67 6.67 0 0 0 3.9 4c.98.4 2.11.6 3.39.63.98 0 1.88-.1 2.7-.31.82-.2 1.56-.48 2.23-.83a8.07 8.07 0 0 0 1.77-1.23 6.6 6.6 0 0 0 1.25-1.53v4.73ZM317.76 19.63h-12.22v9.31h-4V7.44h4v8.66h12.22V7.44h3.99v21.5h-3.99v-9.3Z" fill="#66D4D0"/>
  <path d="m18.7 17.49-7.12-4.3v5.17l7.12 4.3 17.04-12.1A17.86 17.86 0 0 0 33.5 7l-14.8 10.5Z" fill="#1F272E"/>
  <path d="M37.4 18c0-1.1-.1-2.18-.3-3.23l-4.02 2.86V18c0 7.63-6.44 13.84-14.38 13.84-7.93 0-14.38-6.2-14.38-13.84 0-7.63 6.45-13.84 14.38-13.84 3.01 0 5.8.9 8.11 2.41L30.45 4C27.24 1.5 23.15 0 18.7 0 8.37 0 0 8.06 0 18s8.37 18 18.7 18 18.7-8.06 18.7-18ZM58.19 16.26c-2.6-.59-4.84-1.1-4.84-2.84 0-2.34 2.98-2.59 4.27-2.59 1.78 0 2.8.24 4.12.81l3.58-2.53a15.5 15.5 0 0 0-7.67-2.12c-6.74 0-9.14 3.45-9.14 6.68 0 4.64 4.2 5.61 7.9 6.47 2.6.6 4.86 1.11 4.86 2.89 0 .9-.57 2.43-4.34 2.43-2.5 0-5.24-.85-7.2-2.22l-1.63 3.6c1.99 1.5 5.43 2.46 8.8 2.46 5.59 0 9.2-2.61 9.2-6.65 0-4.6-4.2-5.55-7.91-6.39ZM81.46 25.32h-6.02v-5.51h6.02c2.76 0 4.15.91 4.15 2.76 0 1.84-1.36 2.75-4.15 2.75Zm-6.02-9.1h5.15-5.15Zm0-5.27h5.15c3.24 0 3.92 1.44 3.92 2.63 0 1.74-1.35 2.64-3.92 2.64h-5.15v-5.27Zm11.13 6.85-.23-.08.21-.11a5.09 5.09 0 0 0 2.86-4.7c0-3.48-3.06-5.55-8.2-5.55h-10.6V28.9h11.23c5.59 0 8.67-2.07 8.67-5.83a5.3 5.3 0 0 0-3.94-5.28ZM106.88 10.95l5.06-3.6H95.01v21.56h16.93v-3.59h-12.1V19.8h10.32v-3.58H99.84v-5.27h7.04ZM121.27 10.95h4.29c3.1 0 4.8 1.47 4.8 4.13 0 2.67-1.7 4.14-4.8 4.14h-4.29v-8.27Zm14.27 17.96-4.91-7a7.07 7.07 0 0 0 4.57-6.84c0-4.75-3.66-7.71-9.54-7.71h-9.22V28.9h4.83v-6.1h4.8l4.3 6.1h5.17Z" fill="#1F272E"/>
</svg>
