<svg width="304" height="304" fill="none" xmlns="http://www.w3.org/2000/svg">
  <path d="M2 152c0 82.84 67.16 150 150 150" stroke="url(#a)" stroke-width="4"/>
  <path d="M152 302c82.84 0 150-67.16 150-150" stroke="url(#b)" stroke-width="4"/>
  <path d="M302 152C302 69.16 234.84 2 152 2" stroke="url(#c)" stroke-width="4"/>
  <path d="M152 2C69.16 2 2 69.16 2 152" stroke="url(#d)" stroke-width="4"/>
  <path fill="url(#e)" d="M97.64 84.84h4v139.77h-4z"/>
  <path transform="rotate(-120 102.75 227.57)" fill="url(#f)" d="M102.75 227.57h4v139.77h-4z"/>
  <path transform="rotate(120 223.8 151.32)" fill="url(#g)" d="M223.8 151.32h4v139.77h-4z"/>
  <defs>
    <radialGradient id="a" cx="0" cy="0" r="1" gradientUnits="userSpaceOnUse" gradientTransform="rotate(45 -182.48 78.41) scale(212.132 212.861)">
      <stop stop-color="#fff"/>
      <stop offset="1" stop-color="#fff" stop-opacity="0"/>
    </radialGradient>
    <radialGradient id="b" cx="0" cy="0" r="1" gradientUnits="userSpaceOnUse" gradientTransform="rotate(-45 440.55 -32.48) scale(212.132 212.861)">
      <stop stop-color="#fff"/>
      <stop offset="1" stop-color="#fff" stop-opacity="0"/>
    </radialGradient>
    <radialGradient id="c" cx="0" cy="0" r="1" gradientUnits="userSpaceOnUse" gradientTransform="rotate(-135 182.48 13.45) scale(212.132 212.861)">
      <stop stop-color="#fff"/>
      <stop offset="1" stop-color="#fff" stop-opacity="0"/>
    </radialGradient>
    <radialGradient id="d" cx="0" cy="0" r="1" gradientUnits="userSpaceOnUse" gradientTransform="rotate(135 75.59 32.48) scale(212.132 212.861)">
      <stop stop-color="#fff"/>
      <stop offset="1" stop-color="#fff" stop-opacity="0"/>
    </radialGradient>
    <linearGradient id="e" x1="99.64" y1="84.84" x2="99.64" y2="224.62" gradientUnits="userSpaceOnUse">
      <stop stop-color="#fff"/>
      <stop offset="1" stop-color="#fff" stop-opacity="0"/>
    </linearGradient>
    <linearGradient id="f" x1="104.75" y1="227.57" x2="104.75" y2="367.34" gradientUnits="userSpaceOnUse">
      <stop stop-color="#fff"/>
      <stop offset="1" stop-color="#fff" stop-opacity="0"/>
    </linearGradient>
    <linearGradient id="g" x1="225.8" y1="151.32" x2="225.8" y2="291.09" gradientUnits="userSpaceOnUse">
      <stop stop-color="#fff"/>
      <stop offset="1" stop-color="#fff" stop-opacity="0"/>
    </linearGradient>
  </defs>
</svg>
