<svg width="32" height="32" viewBox="0 0 32 32" fill="none" xmlns="http://www.w3.org/2000/svg">
<path d="M17.3333 5.33333C16.5969 5.33333 15.9999 5.93028 15.9999 6.66666C15.9999 7.40304 16.5969 7.99999 17.3333 7.99999H23.9999V14.6667C23.9999 15.403 24.5969 16 25.3333 16C26.0696 16 26.6666 15.403 26.6666 14.6667V6.66666C26.6666 5.93028 26.0696 5.33333 25.3333 5.33333H17.3333Z" fill="white"/>
<path d="M5.33325 17.3333C5.33325 16.5969 5.93021 16 6.66659 16C7.40296 16 7.99992 16.5969 7.99992 17.3333V24H14.6666C15.403 24 15.9999 24.5969 15.9999 25.3333C15.9999 26.0697 15.403 26.6667 14.6666 26.6667H6.66659C5.93021 26.6667 5.33325 26.0697 5.33325 25.3333V17.3333Z" fill="white"/>
</svg>
