<svg width="32" height="32" viewBox="0 0 32 32" fill="none" xmlns="http://www.w3.org/2000/svg">
<path fill-rule="evenodd" clip-rule="evenodd" d="M3.66675 18.6667C3.11446 18.6667 2.66675 19.1144 2.66675 19.6667V20.3334C2.66675 20.8856 3.11446 21.3334 3.66675 21.3334H10.6667V28.3334C10.6667 28.8856 11.1145 29.3334 11.6667 29.3334H12.3334C12.8857 29.3334 13.3334 28.8856 13.3334 28.3334V20.3334V19.6667C13.3334 19.1144 12.8857 18.6667 12.3334 18.6667H11.6667H3.66675Z" fill="white"/>
<path fill-rule="evenodd" clip-rule="evenodd" d="M18.6667 3.66669C18.6667 3.1144 19.1145 2.66669 19.6667 2.66669H20.3334C20.8857 2.66669 21.3334 3.1144 21.3334 3.66669V10.6667H28.3334C28.8857 10.6667 29.3334 11.1144 29.3334 11.6667V12.3334C29.3334 12.8856 28.8857 13.3334 28.3334 13.3334H20.3334H19.6667C19.1145 13.3334 18.6667 12.8856 18.6667 12.3334V11.6667V3.66669Z" fill="white"/>
</svg>
