<svg width="140" height="98" fill="none" xmlns="http://www.w3.org/2000/svg"><path d="M14 83.71H0v14h14v-14zM14 0H0v14h14V0zM28 83.71H14v14h14v-14zM28 0H14v14h14V0zM28 42H14v14h14V42zM42 83.71H28v14h14v-14zM42 0H28v14h14V0zM42 42H28v14h14V42zM56 83.71H42v14h14v-14zM56 0H42v14h14V0zM56 42H42v14h14V42zM70 83.71H56v14h14v-14zM70 0H56v14h14V0zM70 42H56v14h14V42zM84 83.71H70v14h14v-14zM84 0H70v14h14V0zM84 42H70v14h14V42zM98 83.71H84v14h14v-14zM98 0H84v14h14V0zM98 42H84v14h14V42zM112 83.71H98v14h14v-14zM112 0H98v14h14V0zM112 42H98v14h14V42zM126 83.71h-14v14h14v-14zM126 0h-14v14h14V0zM126 42h-14v14h14V42zM140 70h-14v14h14V70zM140 28h-14v14h14V28zM140 56h-14v14h14V56zM140 14h-14v14h14V14z" fill="#2E3840"/></svg>