<svg width="140" height="98" viewBox="0 0 140 98" fill="none" xmlns="http://www.w3.org/2000/svg">
<path d="M14 98.0001L28 98.0001L28 84.0001L14 84.0001L14 98.0001Z" fill="#2E3840"/>
<path d="M14 56L28 56L28 42L14 42L14 56Z" fill="#2E3840"/>
<path d="M14 14L28 14L28 -9.53674e-07L14 3.91319e-06L14 14Z" fill="#2E3840"/>
<path d="M0 42L14 42L14 28L-4.83148e-06 28L0 42Z" fill="#2E3840"/>
<path d="M0 28L14 28L14 14L-4.83148e-06 14L0 28Z" fill="#2E3840"/>
<path d="M28 98.0001L42 98.0001L42 84.0001L28 84.0001L28 98.0001Z" fill="#2E3840"/>
<path d="M28 56L42 56L42 42L28 42L28 56Z" fill="#2E3840"/>
<path d="M28 14L42 14L42 -9.53674e-07L28 3.91319e-06L28 14Z" fill="#2E3840"/>
<path d="M42 98.0001L56 98.0001L56 84.0001L42 84.0001L42 98.0001Z" fill="#2E3840"/>
<path d="M42 56L56 56L56 42L42 42L42 56Z" fill="#2E3840"/>
<path d="M42 14L56 14L56 -9.53674e-07L42 3.91319e-06L42 14Z" fill="#2E3840"/>
<path d="M56 98.0001L70 98.0001L70 84.0001L56 84.0001L56 98.0001Z" fill="#2E3840"/>
<path d="M56 56L70 56L70 42L56 42L56 56Z" fill="#2E3840"/>
<path d="M56 14L70 14L70 -9.53674e-07L56 3.91319e-06L56 14Z" fill="#2E3840"/>
<path d="M70 98.0001L84 98.0001L84 84.0001L70 84.0001L70 98.0001Z" fill="#2E3840"/>
<path d="M70 56L84 56L84 42L70 42L70 56Z" fill="#2E3840"/>
<path d="M70 14L84 14L84 -9.53674e-07L70 3.91319e-06L70 14Z" fill="#2E3840"/>
<path d="M84 98.0001L98 98.0001L98 84.0001L84 84.0001L84 98.0001Z" fill="#2E3840"/>
<path d="M84 56L98 56L98 42L84 42L84 56Z" fill="#2E3840"/>
<path d="M84 14L98 14L98 -9.53674e-07L84 3.91319e-06L84 14Z" fill="#2E3840"/>
<path d="M98 98.0001L112 98.0001L112 84.0001L98 84.0001L98 98.0001Z" fill="#2E3840"/>
<path d="M98 56L112 56L112 42L98 42L98 56Z" fill="#2E3840"/>
<path d="M98 14L112 14L112 -9.53674e-07L98 3.91319e-06L98 14Z" fill="#2E3840"/>
<path d="M112 98.0001L126 98.0001L126 84.0001L112 84.0001L112 98.0001Z" fill="#2E3840"/>
<path d="M112 56L126 56L126 42L112 42L112 56Z" fill="#2E3840"/>
<path d="M112 14L126 14L126 -9.53674e-07L112 3.91319e-06L112 14Z" fill="#2E3840"/>
<path d="M126 14L140 14L140 -9.53674e-07L126 3.91319e-06L126 14Z" fill="#2E3840"/>
<path d="M126 84.0001L140 84.0001L140 70.0001L126 70.0001L126 84.0001Z" fill="#2E3840"/>
<path d="M126 70.0001L140 70.0001L140 56.0001L126 56.0001L126 70.0001Z" fill="#2E3840"/>
</svg>
