<svg width="98" height="101" fill="none" xmlns="http://www.w3.org/2000/svg"><path d="M56.27 42.878H42.023v14.294h14.249V42.878zM56.258 0H42.01v14.294h14.248V0z" fill="#2E3840"/><path d="M56.27 14.289H42.023v14.294h14.249V14.29zM56.27 28.583H42.023v14.295h14.249V28.583zM56.27 57.121H42.023v14.295h14.249V57.122zM56.27 71.416H42.023V85.71h14.249V71.416z" fill="#2E3840"/><path d="M56.248 85.705H42v14.294h14.248V85.705z" fill="#2E3840"/><path d="M70 100.248V86H55.706v14.248H70z" fill="#2E3840"/><path d="M56 100.248V86H41.705v14.248H56z" fill="#2E3840"/><path d="M41.99 100.248V86H27.697v14.248h14.295zM41.99 14.248V0H27.697v14.248h14.295z" fill="#2E3840"/><path d="M28.294 100.248V86H14v14.248h14.294zM28.294 14.248V0H14v14.248h14.294z" fill="#2E3840"/><path d="M14.294 100.248V86H0v14.248h14.294zM14.294 14.248V0H0v14.248h14.294zM98 100.248V86H83.705v14.248H98z" fill="#2E3840"/><path d="M84 100.248V86H69.705v14.248H84z" fill="#2E3840"/></svg>