<svg width="141" height="98" fill="none" xmlns="http://www.w3.org/2000/svg"><path d="M14.041 83.958H0V98h14.041V83.958zM14.041 0H0v14.041h14.041V0zM28.083 83.958H14.042V98h14.041V83.958zM28.083 0H14.042v14.041h14.041V0zM28.083 42.125H14.042v14.041h14.041V42.125zM42.125 83.958H28.083V98h14.042V83.958zM42.125 0H28.083v14.041h14.042V0zM42.125 42.125H28.083v14.041h14.042V42.125zM56.166 83.958H42.125V98h14.041V83.958zM56.166 0H42.125v14.041h14.041V0zM56.166 42.125H42.125v14.041h14.041V42.125zM70.208 83.958H56.166V98h14.042V83.958zM70.208 0H56.166v14.041h14.042V0zM70.208 42.125H56.166v14.041h14.042V42.125z" fill="#fff"/><path d="M84.25 83.958H70.206V98H84.25V83.958zM84.25 0H70.206v14.041H84.25V0zM84.25 42.125H70.206v14.041H84.25V42.125zM98.291 83.958H84.25V98H98.29V83.958zM98.291 0H84.25v14.041H98.29V0zM98.291 42.125H84.25v14.041H98.29V42.125zM112.333 83.958H98.291V98h14.042V83.958zM112.333 0H98.291v14.041h14.042V0zM112.333 42.125H98.291v14.041h14.042V42.125zM126.374 83.958h-14.041V98h14.041V83.958zM126.374 0h-14.041v14.041h14.041V0zM126.374 42.125h-14.041v14.041h14.041V42.125zM140.416 70.208h-14.042v14.041h14.042V70.208zM140.416 28.083h-14.042v14.042h14.042V28.083zM140.416 56.166h-14.042v14.042h14.042V56.166zM140.416 14.042h-14.042v14.041h14.042V14.042z" fill="#fff"/></svg>