<svg width="140" height="98" fill="none" xmlns="http://www.w3.org/2000/svg"><path d="M14 98h14V84H14v14zM14 56h14V42H14v14zM14 14h14V0H14v14zM28 98h14V84H28v14zM28 56h14V42H28v14zM28 14h14V0H28v14zM42 98h14V84H42v14zM42 56h14V42H42v14zM42 14h14V0H42v14zM56 98h14V84H56v14zM56 56h14V42H56v14zM56 14h14V0H56v14zM70 98h14V84H70v14zM70 56h14V42H70v14zM70 14h14V0H70v14zM84 98h14V84H84v14zM84 56h14V42H84v14zM84 14h14V0H84v14zM98 98h14V84H98v14zM98 56h14V42H98v14zM98 14h14V0H98v14zM112 98h14V84h-14v14zM112 56h14V42h-14v14zM112 14h14V0h-14v14zM126 84h14V70h-14v14zM0 84h14V70H0v14zM0 56h14V42H0v14zM0 28h14V14H0v14zM126 70h14V56h-14v14zM126 28h14V14h-14v14zM0 70h14V56H0v14zM0 42h14V28H0v14z" fill="#2E3840"/></svg>