<svg width="141" height="98" fill="none" xmlns="http://www.w3.org/2000/svg"><path d="M126.895 14.046V42.03h.013c7.783 0 14.092-6.261 14.092-13.986 0-7.733-6.315-14-14.105-14zM14.11 83.96h.008l.005-27.984h-.013c-7.784 0-14.094 6.26-14.095 13.986v.007c-.001 7.728 6.31 13.992 14.095 13.992zM126.933 14.043v-.044C126.933 6.268 120.618 0 112.828 0H0v13.994l126.933.049zM14.133 84.011c0 7.728 6.315 13.991 14.1 13.989L141 97.956V83.962l-126.867.049z" fill="#fff"/><path d="M14.133 56.018v.005h98.7c7.788 0 14.1-6.265 14.1-13.994H28.228c-7.785.002-14.095 6.264-14.095 13.989z" fill="#fff"/></svg>