<svg width="140" height="98" viewBox="0 0 140 98" fill="none" xmlns="http://www.w3.org/2000/svg">
<path d="M126 98L140 98L140 84L126 84L126 98Z" fill="#2E3840"/>
<path d="M98 98L112 98L112 84L98 84L98 98Z" fill="#2E3840"/>
<path d="M98 56L112 56L112 42L98 42L98 56Z" fill="#2E3840"/>
<path d="M98 14L112 14L112 -9.53674e-07L98 -9.53641e-07L98 14Z" fill="#2E3840"/>
<path d="M70 98L84 98L84 84L70 84L70 98Z" fill="#2E3840"/>
<path d="M70 56L84 56L84 42L70 42L70 56Z" fill="#2E3840"/>
<path d="M70 14L84 14L84 -9.53674e-07L70 -9.53641e-07L70 14Z" fill="#2E3840"/>
<path d="M42 98L56 98L56 84L42 84L42 98Z" fill="#2E3840"/>
<path d="M42 56L56 56L56 42L42 42L42 56Z" fill="#2E3840"/>
<path d="M42 14L56 14L56 -9.53674e-07L42 -9.53641e-07L42 14Z" fill="#2E3840"/>
<path d="M14 98L28 98L28 84L14 84L14 98Z" fill="#2E3840"/>
<path d="M14 56L28 56L28 42L14 42L14 56Z" fill="#2E3840"/>
<path d="M14 14L28 14L28 -9.53674e-07L14 -9.53641e-07L14 14Z" fill="#2E3840"/>
<path d="M0 14L14 14L14 -9.53674e-07L0 -9.53641e-07L0 14Z" fill="#2E3840"/>
<path d="M112 98L126 98L126 84L112 84L112 98Z" fill="#2E3840"/>
<path d="M112 56L126 56L126 42L112 42L112 56Z" fill="#2E3840"/>
<path d="M112 14L126 14L126 0L112 0L112 14Z" fill="#2E3840"/>
<path d="M84 98L98 98L98 84L84 84L84 98Z" fill="#2E3840"/>
<path d="M84 56L98 56L98 42L84 42L84 56Z" fill="#2E3840"/>
<path d="M84 14L98 14L98 0L84 0L84 14Z" fill="#2E3840"/>
<path d="M56 98L70 98L70 84L56 84L56 98Z" fill="#2E3840"/>
<path d="M56 56L70 56L70 42L56 42L56 56Z" fill="#2E3840"/>
<path d="M56 14L70 14L70 0L56 0L56 14Z" fill="#2E3840"/>
<path d="M28 98L42 98L42 84L28 84L28 98Z" fill="#2E3840"/>
<path d="M28 56L42 56L42 42L28 42L28 56Z" fill="#2E3840"/>
<path d="M28 14L42 14L42 0L28 0L28 14Z" fill="#2E3840"/>
<path d="M0 98L14 98L14 84L0 84L0 98Z" fill="#2E3840"/>
<path d="M0 84L14 84L14 70L0 70L0 84Z" fill="#2E3840"/>
<path d="M126 42L140 42L140 28L126 28L126 42Z" fill="#2E3840"/>
<path d="M0 70L14 70L14 56L0 56L0 70Z" fill="#2E3840"/>
<path d="M126 28L140 28L140 14L126 14L126 28Z" fill="#2E3840"/>
</svg>
