<svg width="140" height="98" viewBox="0 0 140 98" fill="none" xmlns="http://www.w3.org/2000/svg">
<path d="M140 0H126V14H140V0Z" fill="#2E3840"/>
<path d="M14 0H0V14H14V0Z" fill="#2E3840"/>
<path d="M140 14H126V28H140V14Z" fill="#2E3840"/>
<path d="M14 14H0V28H14V14Z" fill="#2E3840"/>
<path d="M140 28H126V42H140V28Z" fill="#2E3840"/>
<path d="M14 28H0V42H14V28Z" fill="#2E3840"/>
<path d="M140 42H126V56H140V42Z" fill="#2E3840"/>
<path d="M126 42H112V56H126V42Z" fill="#2E3840"/>
<path d="M112 42H98V56H112V42Z" fill="#2E3840"/>
<path d="M98 42H84V56H98V42Z" fill="#2E3840"/>
<path d="M84 42H70V56H84V42Z" fill="#2E3840"/>
<path d="M70 42H56V56H70V42Z" fill="#2E3840"/>
<path d="M56 42H42V56H56V42Z" fill="#2E3840"/>
<path d="M42 42H28V56H42V42Z" fill="#2E3840"/>
<path d="M28 42H14V56H28V42Z" fill="#2E3840"/>
<path d="M140 56H126V70H140V56Z" fill="#2E3840"/>
<path d="M140 70H126V84H140V70Z" fill="#2E3840"/>
<path d="M140 84H126V98H140V84Z" fill="#2E3840"/>
</svg>
