<svg width="140" height="98" fill="none" xmlns="http://www.w3.org/2000/svg"><path d="M125.994 84.004h.007c7.732 0 14-6.264 14-13.992 0-7.727-6.268-13.992-14-13.992h-.007v27.984zM14.021 84.007C14.021 91.735 20.29 98 28.023 98h84.01c7.732 0 14-6.264 14-13.992v-.001H14.022zM14.021 13.997v.045L140 13.993V0H28.026C20.292 0 14.02 6.267 14.02 13.997z" fill="#fff"/><path d="M14.004 83.957l.002-27.937h112.026v-.001c0-7.728-6.268-13.992-14.001-13.992H14.01l-.006-27.936C6.271 14.092 0 20.359 0 28.089l.003 41.876c.001 7.728 6.269 13.992 14.001 13.992z" fill="#fff"/></svg>