<svg width="20" height="20" viewBox="0 0 20 20" fill="none" xmlns="http://www.w3.org/2000/svg">
    <path fillRule="evenodd" clipRule="evenodd" d="M0.807665 17.4881C0.417141 17.8786 0.417141 18.5118 0.807665 18.9023C1.19819 19.2928 1.83135 19.2928 2.22188 18.9023L10.0001 11.1241L17.7782 18.9023C18.1688 19.2928 18.8019 19.2928 19.1924 18.9023C19.583 18.5118 19.583 17.8786 19.1924 17.4881L11.4143 9.70989L19.1924 1.93172C19.583 1.54119 19.583 0.908027 19.1924 0.517502C18.8019 0.126978 18.1688 0.126979 17.7782 0.517503L10.0001 8.29568L2.22188 0.517503C1.83135 0.126979 1.19819 0.126979 0.807663 0.517503C0.417139 0.908028 0.41714 1.54119 0.807664 1.93172L8.58584 9.70989L0.807665 17.4881Z" />
</svg>