<svg width="18" height="18" viewBox="0 0 18 18" fill="none" xmlns="http://www.w3.org/2000/svg">
<path fill-rule="evenodd" clip-rule="evenodd" d="M16.8749 1.13749C16.3874 0.649994 15.5999 0.649994 15.1124 1.13749L8.9999 7.23749L2.8874 1.12499C2.3999 0.637494 1.6124 0.637494 1.1249 1.12499C0.637402 1.61249 0.637402 2.39999 1.1249 2.88749L7.2374 8.99999L1.1249 15.1125C0.637402 15.6 0.637402 16.3875 1.1249 16.875C1.6124 17.3625 2.3999 17.3625 2.8874 16.875L8.9999 10.7625L15.1124 16.875C15.5999 17.3625 16.3874 17.3625 16.8749 16.875C17.3624 16.3875 17.3624 15.6 16.8749 15.1125L10.7624 8.99999L16.8749 2.88749C17.3499 2.41249 17.3499 1.61249 16.8749 1.13749Z" fill="#1F272E"/>
</svg>
