<svg width="306" height="64" viewBox="0 0 306 64" fill="none" xmlns="http://www.w3.org/2000/svg">
<path d="M101.956 -0.472656H111.23L111.233 55.1705H111.23L101.956 45.8967V-0.472656Z" fill="white"/>
<path d="M185.418 64.4475H120.507L111.233 55.1737H185.418V64.4475Z" fill="white"/>
<path d="M0 64.4727H9.28015V36.6417L0 45.9219V64.4727Z" fill="white"/>
<path d="M18.1019 -0.416139H18.5038L18.5571 -0.466371L92.7638 -0.434975V8.84203L18.5603 8.81064V8.84203H18.5258C16.0815 8.84283 13.737 9.81115 12.0045 11.5354C10.2721 13.2596 9.29259 15.5995 9.28015 18.0437V27.3615H83.4868V36.6291H9.27073V27.4055L6.17059e-07 18.1347L0.0282543 18.1065H6.17059e-07C-0.00124797 13.266 1.89238 8.61735 5.27558 5.15553C8.65878 1.69371 13.2627 -0.306203 18.1019 -0.416139Z" fill="white"/>
<path d="M203.975 -0.438165H194.698V64.4475H203.975V-0.438165Z" fill="white"/>
<path d="M296.732 8.80121L306 18.0845C306 18.3991 305.984 18.7135 305.95 19.0263C305.709 23.7656 303.657 28.2316 300.22 31.5029C296.782 34.7741 292.22 36.6012 287.474 36.6071L287.449 36.6291H222.529V64.413H213.255V-0.472656H287.455L296.732 8.80121H222.529V27.3521H287.481C289.933 27.3521 292.286 26.3782 294.02 24.6445C295.755 22.9108 296.731 20.5591 296.732 18.1065V8.80121Z" fill="white"/>
</svg>
