<svg width="335" height="64" viewBox="0 0 335 64" fill="none" xmlns="http://www.w3.org/2000/svg">
<path d="M90.6611 9.13131L90.6611 0L18.2134 -3.16679e-06C13.217 -3.38519e-06 9.18769 4.0404 9.18769 9.0505L18.2134 9.0505L90.6611 9.13131Z" fill="white"/>
<path d="M9.10801 36.3695L81.5557 36.3695L81.5557 27.2382L9.10801 27.2382L9.10801 9.1372C4.11162 9.1372 0.0822447 13.1776 0.0822445 18.1877L0.0822425 63.6018L9.10801 63.6018L9.10801 36.3695Z" fill="white"/>
<path d="M212.83 64.0056L221.855 64.0056L221.855 60.4501L221.855 0.409668L212.749 0.409668L212.83 60.4501L212.83 64.0056Z" fill="white"/>
<path d="M119.91 54.5433L119.91 45.4928L119.91 0.0786133L110.884 0.0786129L110.884 45.4928C110.884 50.4221 114.914 54.5433 119.91 54.5433Z" fill="white"/>
<path d="M119.912 54.5454C119.912 59.5555 123.941 63.5959 128.937 63.5959L192.359 63.5959L192.359 54.5454L128.937 54.5454L119.912 54.5454Z" fill="white"/>
<path d="M325.974 9.04443L325.974 27.2262C330.971 27.2262 335 23.1858 335 18.1757C335 13.1656 330.971 9.04443 325.974 9.04443Z" fill="white"/>
<path d="M253.445 9.0505L325.974 9.05051C325.974 4.0404 321.864 -1.79651e-07 316.867 -3.9805e-07L244.339 -3.56836e-06L244.339 63.596L253.365 63.596L253.365 36.3636L316.867 36.3636C321.864 36.3636 325.893 32.3232 325.893 27.3131L253.365 27.3131L253.365 9.0505L253.445 9.0505Z" fill="white"/>
</svg>
