<svg width="306" height="64" viewBox="0 0 306 64" fill="none" xmlns="http://www.w3.org/2000/svg">
<g clip-path="url(#clip0)">
<path fill-rule="evenodd" clip-rule="evenodd" d="M92.7162 9.17474V0.0324626L18.5475 0C13.4281 0 9.27586 4.09434 9.27586 9.14228H18.5475L92.7162 9.17474ZM9.27572 36.5733H83.4445V27.4311H9.27572V9.17492H9.27161C4.15226 9.17492 0 13.2693 0 18.3172V64.0002H9.27572V36.5733ZM204 63.9675H194.724V60.4535L194.716 0H203.992L204 60.4535V63.9675ZM111.264 54.8577H111.268V45.7155V0H101.996V45.7155C101.992 50.7634 106.144 54.8577 111.264 54.8577ZM120.539 63.9999C115.42 63.9999 111.268 59.9097 111.268 54.8577H120.539H185.437V63.9999H120.539ZM296.728 9.14237V27.431C301.847 27.431 306 23.3366 306 18.2887C306 13.2367 301.847 9.14237 296.728 9.14237ZM296.728 9.14228H222.547V27.4268H296.728C296.728 32.4748 292.576 36.5691 287.456 36.5691H222.547V64H213.275V0H287.456C292.576 0 296.728 4.09435 296.728 9.14228Z" fill="white"/>
</g>
<defs>
<clipPath id="clip0">
<rect width="64" height="306" fill="white" transform="translate(306) rotate(90)"/>
</clipPath>
</defs>
</svg>
