<svg width="335" height="233" viewBox="0 0 335 233" fill="none" xmlns="http://www.w3.org/2000/svg">
<path d="M301.467 133.196H301.454V199.729H301.473C319.972 199.729 334.967 184.837 334.967 166.465C334.967 148.091 319.969 133.196 301.467 133.196Z" fill="white"/>
<path d="M301.547 199.738V199.731H0V233.001H268.057C286.552 233.001 301.547 218.109 301.547 199.738Z" fill="white"/>
<path d="M33.5067 100.039H33.5226L33.5098 33.503V33.3862L334.997 33.2695V0H0L0.00635378 66.7724C0.00953067 85.144 15.0076 100.039 33.5067 100.039Z" fill="white"/>
<path d="M268.05 99.9268H33.5479C33.5479 118.301 48.546 133.196 67.0482 133.196H301.547C301.547 114.822 286.549 99.9268 268.05 99.9268Z" fill="white"/>
</svg>
