<svg width="197" height="23" fill="none" xmlns="http://www.w3.org/2000/svg"><path d="M96.83 12.812L94.585 7.25l-2.246 5.562h4.493zm4.807 5.446h-2.599l-1.308-3.217h-6.272l-1.29 3.217h-2.48l5.548-13.565h2.774l5.627 13.565zM105.273 12.712c0 .62.088 1.153.264 1.599.175.445.42.813.732 1.105.313.29.684.503 1.114.64.43.135.899.203 1.407.203 1.028 0 1.826-.259 2.393-.776.566-.516.85-1.363.85-2.539V4.69h2.442v8.004c0 .995-.134 1.857-.401 2.587-.267.73-.651 1.334-1.152 1.812a4.628 4.628 0 01-1.817 1.056c-.71.226-1.515.339-2.413.339-1.003 0-1.869-.133-2.599-.397-.729-.265-1.338-.643-1.826-1.134a4.548 4.548 0 01-1.085-1.773c-.234-.691-.351-1.47-.351-2.336V4.69h2.442v8.023zM128.227 6.921h-4.611v11.337h-2.442V6.921h-4.533V4.693h11.586V6.92zM131.634 11.468c0 .66.101 1.28.302 1.86.202.582.505 1.086.909 1.512.404.427.902.766 1.494 1.017.593.253 1.28.378 2.061.378.73 0 1.384-.116 1.964-.348a4.346 4.346 0 001.485-.97c.41-.413.726-.913.947-1.501a5.47 5.47 0 00.333-1.948 5.65 5.65 0 00-.303-1.86 4.14 4.14 0 00-.909-1.512 4.41 4.41 0 00-1.494-1.017c-.593-.252-1.28-.378-2.061-.378-.73 0-1.387.116-1.974.349a4.244 4.244 0 00-1.494.978c-.41.42-.723.92-.938 1.502a5.553 5.553 0 00-.322 1.938zm-2.579-.02c0-1.02.172-1.957.518-2.809a6.357 6.357 0 011.475-2.209 6.652 6.652 0 012.305-1.444c.899-.342 1.908-.514 3.028-.514 1.094 0 2.094.162 2.999.484.905.324 1.677.786 2.315 1.386a6.164 6.164 0 011.485 2.2c.351.866.527 1.847.527 2.946 0 1.02-.172 1.957-.517 2.81a6.396 6.396 0 01-1.475 2.209c-.639.62-1.411 1.101-2.315 1.444-.906.342-1.912.513-3.019.513-1.094 0-2.094-.158-2.999-.474-.905-.317-1.677-.776-2.315-1.377a6.143 6.143 0 01-1.485-2.209c-.351-.872-.527-1.857-.527-2.955zM155.898 6.921h-4.611v11.337h-2.442V6.921h-4.532V4.693h11.585V6.92zM167.075 12.386h-6.291v3.643h7.229v2.23h-9.67V4.692h9.455V6.92h-7.014v3.237h6.291v2.228zM182.015 16.76a3.11 3.11 0 01-.713.609c-.306.2-.668.381-1.084.543a8.495 8.495 0 01-3.048.552c-1.12 0-2.136-.161-3.048-.484-.911-.323-1.69-.786-2.334-1.386a6.192 6.192 0 01-1.505-2.2c-.358-.865-.537-1.847-.537-2.945 0-1.02.176-1.958.528-2.81a6.334 6.334 0 011.504-2.209c.651-.62 1.436-1.102 2.354-1.444.918-.342 1.944-.514 3.077-.514 1.081 0 2.006.133 2.774.397.769.266 1.355.54 1.759.824v3.372a5.564 5.564 0 00-.772-.872 5.635 5.635 0 00-1.036-.756 5.933 5.933 0 00-1.269-.533 5.151 5.151 0 00-1.456-.203c-.742 0-1.413.116-2.012.349a4.39 4.39 0 00-1.524.969 4.132 4.132 0 00-.957 1.501 5.476 5.476 0 00-.332 1.948c0 .66.1 1.276.302 1.85.202.576.501 1.077.899 1.503.397.426.895.765 1.495 1.017.598.252 1.289.384 2.07.397.599 0 1.15-.064 1.651-.193a6.066 6.066 0 001.368-.524 4.92 4.92 0 001.084-.774c.312-.298.567-.62.762-.97v2.985zM194.491 12.386h-7.483v5.872h-2.442V4.693h2.442v5.465h7.483V4.693h2.441v13.565h-2.441v-5.872z" fill="#34B7AA"/><path d="M11.444 11.032L7.085 8.32v3.261l4.359 2.712 10.431-7.626a11.323 11.323 0 00-1.374-2.257l-9.057 6.622z" fill="#404755"/><path d="M22.896 11.356c0-.695-.063-1.377-.184-2.036l-2.465 1.802c.002.078.004.156.004.234 0 4.814-3.948 8.73-8.804 8.73-4.853 0-8.8-3.916-8.8-8.73s3.947-8.732 8.8-8.732c1.841 0 3.55.563 4.965 1.523L18.64 2.52A11.462 11.462 0 0011.448 0C5.125 0 0 5.083 0 11.356 0 17.627 5.126 22.71 11.447 22.71c6.323 0 11.449-5.083 11.449-11.354zM35.615 10.26c-1.59-.374-2.962-.694-2.962-1.795 0-1.473 1.827-1.631 2.614-1.631 1.09 0 1.71.148 2.522.513l2.19-1.601c-1.184-.748-2.964-1.333-4.694-1.333-4.123 0-5.592 2.174-5.592 4.21 0 2.931 2.57 3.542 4.837 4.081 1.592.377 2.968.704 2.968 1.822 0 .574-.344 1.535-2.653 1.535-1.533 0-3.21-.535-4.402-1.397l-1.002 2.273c1.214.94 3.319 1.546 5.384 1.546 3.42 0 5.631-1.648 5.631-4.191 0-2.902-2.572-3.502-4.841-4.033zM49.861 15.975h-3.69v-3.481h3.69c1.683 0 2.538.579 2.538 1.742 0 1.164-.831 1.74-2.538 1.74zm-3.69-5.746h3.153-3.152zm0-3.323h3.153c1.986 0 2.404.908 2.404 1.661 0 1.095-.83 1.662-2.404 1.662h-3.152V6.906zm6.813 4.32l-.14-.047.13-.07c1.13-.607 1.75-1.66 1.75-2.962 0-2.197-1.875-3.505-5.016-3.505h-6.494V18.24h6.877c3.42 0 5.304-1.307 5.304-3.681 0-1.618-.879-2.831-2.41-3.332zM65.42 6.906l3.097-2.264H58.153V18.24h10.364v-2.265H61.11v-3.481h6.318v-2.265H61.11V6.906h4.31zM74.227 6.906h2.623c1.894 0 2.937.926 2.937 2.61 0 1.681-1.043 2.61-2.938 2.61h-2.622v-5.22zM82.96 18.24l-3.01-4.417c1.776-.77 2.8-2.283 2.8-4.315 0-3-2.237-4.866-5.84-4.866H71.27V18.24h2.958v-3.852h2.685c.085 0 .167-.002.25-.004l2.629 3.856h3.17z" fill="#404755"/></svg>