<svg xmlns="http://www.w3.org/2000/svg" width="233" height="26" fill="none">
  <path fill="#66D4D0" d="M114.257 14.668 111.606 8.3l-2.651 6.368h5.302Zm5.671 6.234h-3.066l-1.545-3.683h-7.4l-1.521 3.683h-2.928l6.547-15.53h3.274l6.639 15.53ZM124.219 14.553c0 .71.104 1.32.311 1.831.207.51.496.931.864 1.265.369.332.807.577 1.314.732a5.645 5.645 0 0 0 1.66.233c1.214 0 2.156-.296 2.824-.887.669-.592 1.003-1.56 1.003-2.908V5.37h2.882v9.162c0 1.14-.158 2.126-.473 2.963-.315.835-.769 1.527-1.36 2.074-.592.547-1.307.95-2.144 1.209-.838.259-1.787.388-2.847.388-1.184 0-2.206-.152-3.066-.454-.861-.303-1.579-.736-2.155-1.298a5.18 5.18 0 0 1-1.28-2.03c-.277-.792-.415-1.683-.415-2.674v-9.34h2.882v9.184ZM151.303 7.923h-5.44v12.98h-2.882V7.922h-5.348V5.372h13.67v2.551ZM155.324 13.13c0 .755.118 1.464.357 2.13a4.72 4.72 0 0 0 1.072 1.73 5.188 5.188 0 0 0 1.763 1.165c.699.289 1.51.433 2.432.433.861 0 1.633-.133 2.317-.4a5.139 5.139 0 0 0 1.752-1.11 4.799 4.799 0 0 0 1.118-1.718c.261-.673.392-1.416.392-2.23a6.25 6.25 0 0 0-.358-2.13 4.717 4.717 0 0 0-1.071-1.73 5.205 5.205 0 0 0-1.764-1.166c-.699-.287-1.51-.432-2.432-.432-.861 0-1.636.133-2.328.4a5.034 5.034 0 0 0-1.764 1.12 4.787 4.787 0 0 0-1.106 1.72c-.254.665-.38 1.404-.38 2.218Zm-3.044-.022c0-1.169.204-2.241.611-3.217a7.268 7.268 0 0 1 1.741-2.53c.753-.71 1.66-1.26 2.72-1.652 1.061-.392 2.251-.588 3.573-.588 1.291 0 2.47.185 3.539.554 1.068.37 1.978.899 2.732 1.586a7.054 7.054 0 0 1 1.751 2.52c.415.99.623 2.114.623 3.371 0 1.169-.204 2.24-.611 3.217a7.318 7.318 0 0 1-1.74 2.53c-.754.71-1.664 1.26-2.732 1.653-1.069.391-2.256.588-3.562.588-1.291 0-2.471-.182-3.538-.544-1.069-.362-1.979-.888-2.732-1.575a7.02 7.02 0 0 1-1.752-2.53c-.415-.998-.623-2.125-.623-3.383ZM183.954 7.923h-5.44v12.98h-2.882V7.922h-5.348V5.372h13.67v2.551ZM197.143 14.18h-7.423v4.17h8.529v2.552h-11.411V5.372h11.157v2.551h-8.275v3.706h7.423v2.55ZM214.773 19.187c-.2.237-.481.47-.842.698a6.98 6.98 0 0 1-1.279.622 10.25 10.25 0 0 1-3.597.633c-1.321 0-2.52-.185-3.596-.555-1.075-.37-1.994-.9-2.755-1.587a7.105 7.105 0 0 1-1.775-2.518c-.422-.99-.634-2.114-.634-3.372 0-1.169.208-2.241.623-3.217a7.263 7.263 0 0 1 1.775-2.53c.768-.71 1.694-1.26 2.778-1.652 1.083-.392 2.294-.588 3.631-.588 1.275 0 2.366.151 3.273.454.907.304 1.598.618 2.075.944v3.86a6.667 6.667 0 0 0-2.132-1.864 7.157 7.157 0 0 0-1.499-.61 6.245 6.245 0 0 0-1.717-.233c-.876 0-1.668.133-2.375.4a5.2 5.2 0 0 0-1.798 1.109A4.72 4.72 0 0 0 203.8 10.9c-.262.673-.392 1.416-.392 2.23 0 .755.119 1.46.357 2.119a4.81 4.81 0 0 0 1.06 1.719c.469.489 1.057.876 1.764 1.165.707.288 1.522.44 2.443.455.707 0 1.357-.075 1.948-.222a7.303 7.303 0 0 0 1.614-.6c.484-.25.911-.546 1.279-.886.369-.34.669-.71.9-1.11v3.417ZM229.494 14.18h-8.83v6.722h-2.881V5.372h2.881v6.257h8.83V5.372h2.881v15.53h-2.881V14.18Z"/>
  <path fill="#1F272E" d="M13.504 12.63 8.36 9.524v3.733l5.143 3.104 12.309-8.73a12.897 12.897 0 0 0-1.622-2.584L13.504 12.63Z"/>
  <path fill="#1F272E" d="M27.016 13.001c0-.796-.074-1.576-.217-2.331l-2.908 2.063c.002.09.004.179.004.268 0 5.512-4.658 9.995-10.387 9.995-5.727 0-10.385-4.483-10.385-9.995 0-5.511 4.658-9.997 10.385-9.997 2.172 0 4.188.645 5.858 1.744l2.627-1.863A13.786 13.786 0 0 0 13.508 0C6.048 0 0 5.82 0 13.001 0 20.181 6.049 26 13.508 26c7.46 0 13.508-5.819 13.508-12.999ZM42.026 11.744c-1.877-.427-3.495-.793-3.495-2.054 0-1.686 2.155-1.867 3.085-1.867 1.285 0 2.016.17 2.976.587l2.584-1.833c-1.398-.856-3.498-1.526-5.54-1.526-4.865 0-6.598 2.49-6.598 4.82 0 3.356 3.033 4.055 5.708 4.672 1.878.432 3.502.806 3.502 2.086 0 .657-.406 1.758-3.13 1.758-1.81 0-3.789-.613-5.195-1.6L34.74 19.39c1.432 1.076 3.916 1.77 6.353 1.77 4.036 0 6.645-1.887 6.645-4.799 0-3.323-3.036-4.01-5.713-4.617ZM58.836 18.29h-4.354v-3.986h4.354c1.986 0 2.994.663 2.994 1.993 0 1.334-.98 1.992-2.994 1.992Zm-4.354-6.58h3.72-3.72Zm0-3.804h3.72c2.343 0 2.836 1.04 2.836 1.902 0 1.253-.98 1.903-2.837 1.903h-3.719V7.906Zm8.039 4.947-.166-.054.154-.08c1.334-.696 2.065-1.9 2.065-3.393 0-2.514-2.213-4.012-5.92-4.012h-7.662v15.568h8.116c4.035 0 6.257-1.496 6.257-4.215 0-1.852-1.036-3.24-2.844-3.814ZM77.193 7.906l3.655-2.592h-12.23v15.568h12.23v-2.593h-8.74v-3.986h7.455v-2.592h-7.456V7.906h5.086ZM87.586 7.906h3.094c2.236 0 3.467 1.06 3.467 2.988 0 1.925-1.23 2.988-3.467 2.988h-3.094V7.906Zm10.306 12.976-3.552-5.057c2.096-.88 3.305-2.614 3.305-4.94 0-3.435-2.64-5.571-6.891-5.571h-6.659v15.568h3.49v-4.41h3.169c.1 0 .198-.002.296-.005l3.101 4.415h3.74Z"/>
</svg>
