<svg width="261" height="38" viewBox="0 0 261 38" fill="none" xmlns="http://www.w3.org/2000/svg">
<path d="M165.822 28.0362C165.533 28.3763 165.146 28.7165 164.664 29.0566C164.181 29.3968 163.553 29.6883 162.877 29.9799C162.201 30.2715 161.428 30.4658 160.607 30.6602C159.786 30.8546 158.869 30.9032 157.903 30.9032C156.068 30.9032 154.378 30.6116 152.881 30.0771C151.384 29.5426 150.129 28.7651 149.066 27.7932C148.004 26.7727 147.183 25.5579 146.604 24.1487C146.024 22.6909 145.734 21.0873 145.734 19.2408C145.734 17.54 146.024 15.985 146.604 14.5758C147.183 13.1666 148.004 11.9518 149.066 10.8827C150.129 9.86225 151.432 9.03616 152.929 8.50163C154.426 7.96711 156.116 7.62695 158 7.62695C159.786 7.62695 161.283 7.86992 162.539 8.30726C163.794 8.7446 164.76 9.18194 165.436 9.66787V15.3047C165.098 14.8188 164.664 14.3328 164.181 13.8469C163.698 13.361 163.118 12.9722 162.491 12.5835C161.766 12.1461 161.09 11.8546 160.318 11.6116C159.545 11.3686 158.772 11.2715 157.951 11.2715C156.744 11.2715 155.634 11.4658 154.668 11.8546C153.702 12.2433 152.833 12.7778 152.157 13.4582C151.481 14.1385 150.95 14.9645 150.563 15.9364C150.177 16.9083 150.032 17.9773 150.032 19.1922C150.032 20.3098 150.177 21.3303 150.515 22.2536C150.853 23.2254 151.336 24.0515 152.012 24.7318C152.688 25.4121 153.461 25.9952 154.475 26.4326C155.44 26.8699 156.599 27.0643 157.855 27.1129C158.821 27.1129 159.738 27.0157 160.559 26.7727C161.38 26.5784 162.153 26.2868 162.829 25.8981C163.505 25.5093 164.084 25.1206 164.615 24.586C165.146 24.1001 165.533 23.5656 165.871 22.9825V28.0362H165.822Z" fill="#5BB786"/>
<path d="M174.42 26.8232H186.589V30.5163H170.412V7.92041H174.42V26.8232Z" fill="#5BB786"/>
<path d="M188.082 19.1929C188.082 17.4921 188.372 15.9372 188.951 14.528C189.531 13.1187 190.303 11.9039 191.366 10.8349C192.428 9.8144 193.684 8.98831 195.132 8.45378C196.629 7.87066 198.271 7.5791 200.106 7.5791C201.893 7.5791 203.534 7.87066 205.031 8.40519C206.528 8.93972 207.784 9.71721 208.846 10.6891C209.908 11.7095 210.681 12.9244 211.261 14.3336C211.84 15.7914 212.13 17.395 212.13 19.2415C212.13 20.9423 211.84 22.4973 211.261 23.9065C210.681 25.3157 209.908 26.5305 208.846 27.5996C207.784 28.62 206.528 29.4461 205.031 29.9806C203.534 30.5638 201.893 30.8553 200.058 30.8553C198.271 30.8553 196.629 30.6123 195.132 30.0778C193.635 29.5433 192.38 28.7658 191.317 27.7939C190.255 26.7735 189.482 25.5586 188.903 24.1008C188.372 22.643 188.082 21.0395 188.082 19.1929ZM192.331 19.2415C192.331 20.3592 192.476 21.3796 192.814 22.3515C193.152 23.3233 193.635 24.1494 194.311 24.8783C194.987 25.6072 195.808 26.1418 196.774 26.5791C197.74 27.0164 198.899 27.2108 200.154 27.2108C201.361 27.2108 202.424 27.0164 203.39 26.6277C204.355 26.2389 205.176 25.7044 205.804 25.0241C206.432 24.3438 207.011 23.5177 207.349 22.5459C207.735 21.574 207.88 20.5049 207.88 19.2901C207.88 18.1725 207.735 17.152 207.397 16.1801C207.059 15.2083 206.577 14.3822 205.901 13.6533C205.224 12.9244 204.404 12.3898 203.438 11.9525C202.472 11.5152 201.313 11.3208 200.058 11.3208C198.85 11.3208 197.788 11.5152 196.822 11.9039C195.856 12.2927 195.036 12.8272 194.36 13.5561C193.684 14.2364 193.152 15.1111 192.814 16.0343C192.476 16.9576 192.331 18.0267 192.331 19.2415Z" fill="#5BB786"/>
<path d="M220.195 21.2836C220.195 22.304 220.34 23.2273 220.63 23.9562C220.92 24.6851 221.306 25.3168 221.837 25.8028C222.368 26.2887 222.948 26.6289 223.672 26.8718C224.397 27.1148 225.169 27.212 225.99 27.212C227.68 27.212 228.984 26.7746 229.901 25.8999C230.819 25.0253 231.302 23.6161 231.302 21.6723V7.92041H235.31V21.235C235.31 22.8872 235.117 24.345 234.634 25.5598C234.199 26.7746 233.571 27.7951 232.75 28.5726C231.93 29.3501 230.916 29.9332 229.757 30.3219C228.598 30.7107 227.294 30.9051 225.797 30.9051C224.155 30.9051 222.755 30.6621 221.548 30.2248C220.34 29.7874 219.375 29.1557 218.554 28.3782C217.733 27.5521 217.153 26.5803 216.767 25.414C216.381 24.2478 216.188 22.9843 216.188 21.5265V7.92041H220.195V21.2836Z" fill="#5BB786"/>
<path d="M248.636 7.92041C252.789 7.92041 255.928 8.84368 257.956 10.7388C259.984 12.634 260.998 15.3066 260.998 18.7567C260.998 20.7976 260.708 22.5956 260.081 24.102C259.453 25.6084 258.632 26.8232 257.521 27.7465C256.411 28.6698 255.107 29.3987 253.562 29.836C252.017 30.2733 250.375 30.5163 248.54 30.5163H240.91V7.92041H248.636ZM248.54 26.8232C251.341 26.8232 253.417 26.1915 254.769 24.8309C256.121 23.5189 256.797 21.6237 256.797 19.1455C256.797 16.6186 256.121 14.7235 254.817 13.5086C253.513 12.2938 251.437 11.6135 248.588 11.6135H244.918V26.7746H248.54V26.8232Z" fill="#5BB786"/>
<path d="M18.8806 18.4636L11.6855 13.9444V19.3868L18.8806 23.906L36.0713 11.1746C35.4918 9.81394 34.7192 8.55052 33.8017 7.38428L18.8806 18.4636Z" fill="white"/>
<path d="M37.7617 19C37.7617 17.8338 37.6651 16.7161 37.472 15.5985L33.4157 18.6113C33.4157 18.757 33.4157 18.8542 33.4157 19C33.4157 27.0665 26.8968 33.6266 18.8809 33.6266C10.8649 33.6266 4.34598 27.0665 4.34598 19C4.34598 10.9335 10.8649 4.3734 18.8809 4.3734C21.923 4.3734 24.7238 5.29667 27.0899 6.90026L30.7599 4.17903C27.4762 1.60358 23.3717 0 18.8809 0C8.45051 0 0 8.50384 0 19C0 29.4962 8.45051 38 18.8809 38C29.3112 38 37.7617 29.4962 37.7617 19Z" fill="white"/>
<path d="M58.7168 17.1515C56.1092 16.5198 53.8396 15.9853 53.8396 14.1388C53.8396 11.6605 56.8335 11.4175 58.1373 11.4175C59.924 11.4175 60.9381 11.6605 62.2901 12.2922C62.9179 11.8063 65.9118 9.61957 65.9118 9.61957C63.9802 8.35614 61.0346 7.38428 58.1856 7.38428C51.3769 7.38428 48.9625 11.0288 48.9625 14.4303C48.9625 19.3382 53.2119 20.3587 56.9301 21.2334C59.586 21.8651 61.8555 22.4482 61.8555 24.2948C61.8555 25.2666 61.2761 26.8702 57.4613 26.8702C54.9503 26.8702 52.1495 25.9955 50.218 24.5377L48.5762 28.328C50.556 29.883 54.0328 30.9035 57.4613 30.9035C63.111 30.9035 66.7327 28.1336 66.7327 23.906C66.7327 19.0467 62.4833 18.0262 58.7168 17.1515Z" fill="white"/>
<path d="M87.4018 18.8041L87.1604 18.7069L87.3535 18.6098C89.2368 17.5893 90.2509 15.8399 90.2509 13.6532C90.2509 9.96014 87.1604 7.77344 81.9935 7.77344H71.2734V30.5151H82.6213C88.271 30.5151 91.3615 28.3284 91.3615 24.3438C91.3615 21.6711 89.9128 19.6302 87.4018 18.8041ZM76.1506 11.5637H81.3658C84.6494 11.5637 85.3254 13.0701 85.3254 14.3335C85.3254 16.1801 83.9733 17.1034 81.3658 17.1034H76.1506V11.5637ZM76.1506 17.1034H81.3658H76.1506ZM82.235 26.7248H76.1506V20.8936H82.235C84.9874 20.8936 86.4361 21.8655 86.4361 23.8092C86.4361 25.753 85.0357 26.7248 82.235 26.7248Z" fill="white"/>
<path d="M107.878 11.5637L112.997 7.77344H95.9023V30.5151H112.997V26.7248H100.779V20.8936H111.21V17.1034H100.779V11.5637H107.878Z" fill="white"/>
<path d="M136.8 30.5159L131.827 23.1297C134.772 21.8177 136.462 19.2908 136.462 15.8893C136.462 10.8842 132.792 7.72559 126.853 7.72559H117.533V30.4673H122.41V24.1015H126.853C126.998 24.1015 127.143 24.1015 127.288 24.1015L131.633 30.5645H136.8V30.5159ZM122.41 11.5645H126.756C129.895 11.5645 131.585 13.1194 131.585 15.9379C131.585 18.7563 129.847 20.3113 126.756 20.3113H122.41V11.5645Z" fill="white"/>
</svg>
