<svg width="30" height="30" viewBox="0 0 30 30" fill="none" xmlns="http://www.w3.org/2000/svg">
<path fill-rule="evenodd" clip-rule="evenodd" d="M17.6202 6.12976C20.4925 9.00197 20.7647 13.4896 18.4371 16.6681L24.6913 22.9235C25.1795 23.4117 25.1795 24.2032 24.6913 24.6913C24.2032 25.1795 23.4117 25.1795 22.9235 24.6913L16.6681 18.4371C13.4896 20.7647 9.00197 20.4925 6.12976 17.6202C2.95675 14.4472 2.95675 9.30277 6.12976 6.12976C9.30277 2.95675 14.4472 2.95675 17.6202 6.12976ZM7.89752 7.89752C5.70083 10.0942 5.70083 13.6558 7.89752 15.8525C10.0942 18.0492 13.6558 18.0492 15.8525 15.8525C18.0492 13.6558 18.0492 10.0942 15.8525 7.89752C13.6558 5.70083 10.0942 5.70083 7.89752 7.89752Z" fill="#758794"/>
</svg>
