<svg width="48" height="48" fill="none" xmlns="http://www.w3.org/2000/svg"><circle cx="24" cy="24" r="24" fill="#fff"/><path d="M35 18.95c0-1.59-.619-3.085-1.743-4.21a5.957 5.957 0 00-8.416 0l-3.366 3.368a1.19 1.19 0 001.683 1.683l3.366-3.367a3.574 3.574 0 015.05 0 3.55 3.55 0 011.046 2.525c0 .954-.372 1.85-1.046 2.525l-3.366 3.368a1.19 1.19 0 001.683 1.683l3.366-3.367A5.914 5.914 0 0035 18.948zM24.842 28.209l-3.366 3.367a3.574 3.574 0 01-5.05 0 3.548 3.548 0 01-1.046-2.525c0-.954.372-1.85 1.046-2.525l3.366-3.368a1.19 1.19 0 00-1.683-1.683l-3.366 3.367A5.914 5.914 0 0013 29.052c0 1.59.619 3.084 1.743 4.208A5.932 5.932 0 0018.95 35c1.524 0 3.047-.58 4.207-1.74l3.367-3.368a1.19 1.19 0 00-1.683-1.683z" fill="#C0CCD5"/><path d="M20.634 28.557a1.19 1.19 0 01-.841-2.032l6.732-6.734a1.19 1.19 0 111.683 1.683l-6.732 6.735a1.186 1.186 0 01-.842.348z" fill="#C0CCD5"/></svg>