<svg width="210" height="47" fill="none" xmlns="http://www.w3.org/2000/svg"><path d="M66.328 13.736C66.216 6.568 60.392.856 53.224.856H.36v6.608h53.088c3.36.112 6.16 2.8 6.272 6.16v6.944l6.608-6.496v-.336zm-59.36 13.44H59.72v-6.608H6.968v6.608zM.36 40.392V47h52.864c7.168 0 13.104-5.712 13.104-12.88v-.336l-6.608-6.608v6.944c-.112 3.472-3.024 6.272-6.496 6.272H.36zM131.334 7.464L124.838.856H85.19c-7.168 0-12.992 5.712-13.216 12.768v20.16l6.608 6.608V13.848c0-3.472 2.912-6.272 6.384-6.384h46.368zm0 26.432a6.5 6.5 0 01-6.496 6.496H78.582L85.19 47h39.648c7.168-.112 12.992-5.824 13.104-12.88V13.736l-6.608-6.272v26.432zm71.615-26.432L196.453.856h-39.648c-7.168 0-12.992 5.712-13.216 12.768v20.16l6.608 6.608V13.848c0-3.472 2.912-6.272 6.384-6.384h46.368zm0 26.432a6.5 6.5 0 01-6.496 6.496h-46.256L156.805 47h39.648c7.168-.112 12.992-5.824 13.104-12.88V13.736l-6.608-6.272v26.432z" fill="#000"/></svg>