<svg width="48" height="48" fill="none" xmlns="http://www.w3.org/2000/svg"><circle cx="24" cy="24" r="24" fill="#fff"/><path d="M20.548 33.505c9.057 0 14.01-7.503 14.01-14.01 0-.213-.005-.425-.014-.637A10.012 10.012 0 0037 16.308a9.82 9.82 0 01-2.828.776 4.942 4.942 0 002.166-2.723 9.875 9.875 0 01-3.127 1.195 4.925 4.925 0 00-8.39 4.49 13.982 13.982 0 01-10.15-5.145 4.911 4.911 0 00-.668 2.475 4.92 4.92 0 002.192 4.099 4.888 4.888 0 01-2.23-.616l-.001.063a4.925 4.925 0 003.95 4.827 4.934 4.934 0 01-2.224.084 4.929 4.929 0 004.6 3.42 9.878 9.878 0 01-6.115 2.108c-.397 0-.79-.023-1.175-.068a13.938 13.938 0 007.548 2.212" fill="#C0CCD5"/></svg>