<svg width="48" height="48" fill="none" xmlns="http://www.w3.org/2000/svg"><circle cx="24" cy="24" r="24" fill="#fff"/><path fill-rule="evenodd" clip-rule="evenodd" d="M36.962 17.069c.185-.616 0-1.069-.88-1.069h-2.906c-.74 0-1.08.391-1.265.822 0 0-1.478 3.603-3.572 5.944-.678.677-.986.893-1.355.893-.185 0-.453-.216-.453-.831v-5.76c0-.739-.214-1.068-.83-1.068h-4.568c-.462 0-.74.343-.74.668 0 .701 1.047.863 1.155 2.833v4.281c0 .939-.17 1.109-.539 1.109-.986 0-3.383-3.62-4.804-7.76-.279-.806-.558-1.131-1.301-1.131h-2.907c-.83 0-.997.391-.997.822 0 .77.986 4.589 4.589 9.64 2.402 3.449 5.786 5.319 8.866 5.319 1.848 0 2.076-.416 2.076-1.131v-2.607c0-.83.175-.996.76-.996.432 0 1.17.215 2.896 1.878 1.97 1.971 2.295 2.855 3.404 2.855h2.907c.83 0 1.246-.415 1.006-1.234-.262-.817-1.203-2.002-2.452-3.407-.677-.8-1.694-1.663-2.002-2.094-.43-.555-.307-.801 0-1.294 0 0 3.542-4.989 3.912-6.683z" fill="#C0CCD5"/></svg>