<svg width="64" height="64" viewBox="0 0 64 64" fill="none" xmlns="http://www.w3.org/2000/svg">
<g clip-path="url(#clip0_5909_17347)">
<rect x="34" y="54" width="4" height="44" transform="rotate(-180 34 54)" fill="url(#paint0_linear_5909_17347)"/>
</g>
<g clip-path="url(#clip1_5909_17347)">
<rect x="33.9707" y="51.1416" width="4" height="20" transform="rotate(135 33.9707 51.1416)" fill="url(#paint1_linear_5909_17347)"/>
<rect x="19.8281" y="37" width="4" height="20" transform="rotate(135 19.8281 37)" fill="url(#paint2_linear_5909_17347)"/>
</g>
<g clip-path="url(#clip2_5909_17347)">
<rect x="32.8291" y="53.9707" width="4" height="20" transform="rotate(-135 32.8291 53.9707)" fill="url(#paint3_linear_5909_17347)"/>
<rect x="46.9707" y="39.8281" width="4" height="20" transform="rotate(-135 46.9707 39.8281)" fill="url(#paint4_linear_5909_17347)"/>
</g>
<defs>
<linearGradient id="paint0_linear_5909_17347" x1="36" y1="54" x2="36" y2="98" gradientUnits="userSpaceOnUse">
<stop stop-color="white"/>
<stop offset="1" stop-color="white" stop-opacity="0"/>
</linearGradient>
<linearGradient id="paint1_linear_5909_17347" x1="35.9707" y1="51.1416" x2="35.9707" y2="71.1416" gradientUnits="userSpaceOnUse">
<stop stop-color="white"/>
<stop offset="1" stop-color="white" stop-opacity="0"/>
</linearGradient>
<linearGradient id="paint2_linear_5909_17347" x1="21.8281" y1="37" x2="21.8281" y2="57" gradientUnits="userSpaceOnUse">
<stop stop-color="white"/>
<stop offset="1" stop-color="white" stop-opacity="0"/>
</linearGradient>
<linearGradient id="paint3_linear_5909_17347" x1="34.8291" y1="53.9707" x2="34.8291" y2="73.9707" gradientUnits="userSpaceOnUse">
<stop stop-color="white"/>
<stop offset="1" stop-color="white" stop-opacity="0"/>
</linearGradient>
<linearGradient id="paint4_linear_5909_17347" x1="48.9707" y1="39.8281" x2="48.9707" y2="59.8281" gradientUnits="userSpaceOnUse">
<stop stop-color="white"/>
<stop offset="1" stop-color="white" stop-opacity="0"/>
</linearGradient>
<clipPath id="clip0_5909_17347">
<path d="M30 10H34V52C34 53.1046 33.1046 54 32 54C30.8954 54 30 53.1046 30 52V10Z" fill="white"/>
</clipPath>
<clipPath id="clip1_5909_17347">
<rect width="4" height="20" fill="white" transform="translate(17 39.8281) rotate(-45)"/>
</clipPath>
<clipPath id="clip2_5909_17347">
<rect width="4" height="20" fill="white" transform="translate(44.1426 37) rotate(45)"/>
</clipPath>
</defs>
</svg>