<svg width="56" height="56" viewBox="0 0 56 56" fill="none" xmlns="http://www.w3.org/2000/svg">
    <path d="M0 28C0 12.536 12.536 0 28 0C43.464 0 56 12.536 56 28C56 43.464 43.464 56 28 56C12.536 56 0 43.464 0 28Z" />
    <path fillRule="evenodd" clipRule="evenodd" d="M36.1676 19.8462C35.662 19.3407 34.8454 19.3407 34.3398 19.8462L28.0009 26.1722L21.662 19.8333C21.1565 19.3277 20.3398 19.3277 19.8342 19.8333C19.3287 20.3388 19.3287 21.1555 19.8342 21.661L26.1731 27.9999L19.8342 34.3388C19.3287 34.8444 19.3287 35.661 19.8342 36.1666C20.3398 36.6722 21.1565 36.6722 21.662 36.1666L28.0009 29.8277L34.3398 36.1666C34.8454 36.6722 35.662 36.6722 36.1676 36.1666C36.6731 35.661 36.6731 34.8444 36.1676 34.3388L29.8287 27.9999L36.1676 21.661C36.6602 21.1685 36.6602 20.3388 36.1676 19.8462Z" />
</svg>