<svg width="116" height="116" viewBox="0 0 116 116" fill="none" xmlns="http://www.w3.org/2000/svg">
<path fill-rule="evenodd" clip-rule="evenodd" d="M75.5308 66.0703V63.0703H81.951C87.5373 63.0703 92.0675 67.6005 92.0675 73.1868V86.165H89.0675V73.1868C89.0675 69.2573 85.8805 66.0703 81.951 66.0703H75.5308Z" fill="url(#paint0_linear_5884_16953)"/>
<path fill-rule="evenodd" clip-rule="evenodd" d="M54.7982 19C46.4636 19 39.707 25.7565 39.707 34.0912C39.707 42.4258 46.4636 49.1823 54.7982 49.1823C63.1328 49.1823 69.8893 42.4258 69.8893 34.0912C69.8893 25.7565 63.1328 19 54.7982 19ZM36.707 34.0912C36.707 24.0997 44.8067 16 54.7982 16C64.7897 16 72.8893 24.0997 72.8893 34.0912C72.8893 44.0826 64.7897 52.1823 54.7982 52.1823C44.8067 52.1823 36.707 44.0826 36.707 34.0912Z" fill="url(#paint1_angular_5884_16953)"/>
<path fill-rule="evenodd" clip-rule="evenodd" d="M28.1165 66.0664C24.187 66.0664 21 69.2534 21 73.1829V86.1611H18V73.1829C18 67.5966 22.5302 63.0664 28.1165 63.0664H54.774V66.0664H28.1165Z" fill="url(#paint2_linear_5884_16953)"/>
<path fill-rule="evenodd" clip-rule="evenodd" d="M41.8163 96.0688L98.5607 39.3244L96.4393 37.2031L37.1343 96.5082L38.1949 99.0688H92.1162V96.0688H41.8163Z" fill="url(#paint3_linear_5884_16953)"/>
<defs>
<linearGradient id="paint0_linear_5884_16953" x1="90.5005" y1="86.5" x2="72.2678" y2="68.5582" gradientUnits="userSpaceOnUse">
<stop stop-color="#1F272E"/>
<stop offset="1" stop-color="#1F272E" stop-opacity="0"/>
</linearGradient>
<radialGradient id="paint1_angular_5884_16953" cx="0" cy="0" r="1" gradientUnits="userSpaceOnUse" gradientTransform="translate(54.5 34.5) scale(17)">
<stop stop-color="#1F272E" stop-opacity="0"/>
<stop offset="1" stop-color="#1F272E"/>
</radialGradient>
<linearGradient id="paint2_linear_5884_16953" x1="19.5" y1="86.498" x2="54.5" y2="64.498" gradientUnits="userSpaceOnUse">
<stop stop-color="#1F272E"/>
<stop offset="1" stop-color="#1F272E" stop-opacity="0"/>
</linearGradient>
<linearGradient id="paint3_linear_5884_16953" x1="38.5006" y1="97.5021" x2="97.5006" y2="38.5021" gradientUnits="userSpaceOnUse">
<stop stop-color="#1F272E"/>
<stop offset="1" stop-color="#1F272E" stop-opacity="0"/>
</linearGradient>
</defs>
</svg>
