<svg width="82" height="84" viewBox="0 0 82 84" fill="none" xmlns="http://www.w3.org/2000/svg">
<path d="M73.068 70.6659V57.6878C73.068 52.9299 69.2094 49.0713 64.4515 49.0713H59.3153H58.0312" stroke="url(#paint0_linear_6111_16981)" stroke-width="3" stroke-miterlimit="10"/>
<path d="M37.2982 35.1823C46.4612 35.1823 53.8893 27.7542 53.8893 18.5912C53.8893 9.42812 46.4612 2 37.2982 2C28.1351 2 20.707 9.42812 20.707 18.5912C20.707 27.7542 28.1351 35.1823 37.2982 35.1823Z" stroke="url(#paint1_angular_6111_16981)" stroke-width="3" stroke-miterlimit="10"/>
<path d="M2 70.663V57.6848C2 52.927 5.85859 49.0684 10.6165 49.0684H37.274" stroke="url(#paint2_linear_6111_16981)" stroke-width="3" stroke-miterlimit="10"/>
<path d="M74.6166 82.0678H20.6953L80.0004 22.7627" stroke="url(#paint3_linear_6111_16981)" stroke-width="3" stroke-miterlimit="10" stroke-linejoin="bevel"/>
<defs>
<linearGradient id="paint0_linear_6111_16981" x1="73.001" y1="71.001" x2="54.7683" y2="53.0591" gradientUnits="userSpaceOnUse">
<stop stop-color="#1F272E"/>
<stop offset="1" stop-color="#1F272E" stop-opacity="0"/>
</linearGradient>
<radialGradient id="paint1_angular_6111_16981" cx="0" cy="0" r="1" gradientUnits="userSpaceOnUse" gradientTransform="translate(37 19) scale(17)">
<stop stop-color="#1F272E" stop-opacity="0"/>
<stop offset="1" stop-color="#1F272E"/>
</radialGradient>
<linearGradient id="paint2_linear_6111_16981" x1="2" y1="71" x2="37" y2="49" gradientUnits="userSpaceOnUse">
<stop stop-color="#1F272E"/>
<stop offset="1" stop-color="#1F272E" stop-opacity="0"/>
</linearGradient>
<linearGradient id="paint3_linear_6111_16981" x1="21.001" y1="82.001" x2="80.001" y2="23.001" gradientUnits="userSpaceOnUse">
<stop stop-color="#1F272E"/>
<stop offset="1" stop-color="#1F272E" stop-opacity="0"/>
</linearGradient>
</defs>
</svg>
