<svg width="87" height="87" viewBox="0 0 87 87" fill="none" xmlns="http://www.w3.org/2000/svg">
<path fill-rule="evenodd" clip-rule="evenodd" d="M72.501 75L13.3438 15.5177L15.4652 13.3965L75.001 72.5L72.501 75Z" fill="url(#paint0_linear_6111_16951)"/>
<path d="M14.1542 14.1504C-2.05141 30.356 -2.05141 56.6361 14.1542 72.8418C30.3599 89.0474 56.64 89.0474 72.8456 72.8418" stroke="url(#paint1_angular_6111_16951)" stroke-width="3" stroke-miterlimit="10"/>
<path d="M72.8477 72.8456C89.0533 56.64 89.0533 30.3599 72.8477 14.1542C56.642 -2.05141 30.3619 -2.05141 14.1562 14.1542" stroke="url(#paint2_angular_6111_16951)" stroke-width="3" stroke-miterlimit="10"/>
<path d="M53.929 57.415L51.8866 68.8536H35.1107L28.7969 33.4941" stroke="url(#paint3_angular_6111_16951)" stroke-width="3" stroke-miterlimit="10"/>
<path d="M26.5664 27.1211H59.3429L54.8219 52.4396" stroke="url(#paint4_linear_6111_16951)" stroke-width="3" stroke-miterlimit="10"/>
<path d="M61.9539 15.1445H48.1001L44.3729 36.0091L43.5977 40.3475" stroke="url(#paint5_linear_6111_16951)" stroke-width="3" stroke-miterlimit="10"/>
<defs>
<linearGradient id="paint0_linear_6111_16951" x1="73.0011" y1="73.0001" x2="14.0011" y2="14.0001" gradientUnits="userSpaceOnUse">
<stop stop-color="#1F272E"/>
<stop offset="1" stop-color="#1F272E" stop-opacity="0"/>
</linearGradient>
<radialGradient id="paint1_angular_6111_16951" cx="0" cy="0" r="1" gradientUnits="userSpaceOnUse" gradientTransform="translate(44.0018 45.3756) rotate(-134.549) scale(45.6171 45.6073)">
<stop offset="0.494792" stop-color="#1F272E" stop-opacity="0"/>
<stop offset="1" stop-color="#1F272E"/>
</radialGradient>
<radialGradient id="paint2_angular_6111_16951" cx="0" cy="0" r="1" gradientUnits="userSpaceOnUse" gradientTransform="translate(44.5004 42.498) rotate(-138.314) scale(42.8516 42.8472)">
<stop offset="0.515625" stop-color="#1F272E"/>
<stop offset="1" stop-color="#1F272E" stop-opacity="0"/>
</radialGradient>
<radialGradient id="paint3_angular_6111_16951" cx="0" cy="0" r="1" gradientUnits="userSpaceOnUse" gradientTransform="translate(36.999 67) rotate(-100.823) scale(34.6157 24.6036)">
<stop stop-color="#1F272E" stop-opacity="0"/>
<stop offset="0.219501" stop-color="#1F272E" stop-opacity="0"/>
<stop offset="1" stop-color="#1F272E"/>
</radialGradient>
<linearGradient id="paint4_linear_6111_16951" x1="27" y1="27" x2="55.5" y2="52" gradientUnits="userSpaceOnUse">
<stop stop-color="#1F272E"/>
<stop offset="1" stop-color="#1F272E" stop-opacity="0"/>
</linearGradient>
<linearGradient id="paint5_linear_6111_16951" x1="47.499" y1="15" x2="43.999" y2="40" gradientUnits="userSpaceOnUse">
<stop stop-color="#1F272E"/>
<stop offset="1" stop-color="#1F272E" stop-opacity="0"/>
</linearGradient>
</defs>
</svg>
