<svg width="87" height="87" viewBox="0 0 87 87" fill="none" xmlns="http://www.w3.org/2000/svg">
<path fill-rule="evenodd" clip-rule="evenodd" d="M72.501 75L13.3438 15.5177L15.4652 13.3965L75.001 72.5L72.501 75Z" fill="url(#paint0_linear_6111_16958)"/>
<path d="M48.5078 43.8438H65.4485V52.0551" stroke="url(#paint1_angular_6111_16958)" stroke-width="3" stroke-miterlimit="10"/>
<path d="M52.3038 52.0551H17.9766V43.8438H38.8152" stroke="url(#paint2_angular_6111_16958)" stroke-width="3" stroke-miterlimit="10"/>
<path d="M69.5781 43.0977V51.309" stroke="url(#paint3_linear_6111_16958)" stroke-width="3" stroke-miterlimit="10"/>
<path d="M73.332 43.0977V51.309" stroke="url(#paint4_linear_6111_16958)" stroke-width="3" stroke-miterlimit="10"/>
<path d="M73.6521 40.7977C73.6521 33.5108 67.7443 27.603 60.4573 27.603L60.3642 27.685C61.0053 26.3842 61.3668 24.9156 61.3668 23.3687C61.3668 17.9716 56.9909 13.5957 51.5938 13.5957" stroke="url(#paint5_linear_6111_16958)" stroke-width="3" stroke-miterlimit="10" stroke-linejoin="bevel"/>
<path d="M41.2461 18.7695C41.2461 23.4771 45.0627 27.2939 49.7701 27.2939L49.9453 27.2753C49.5167 28.0543 49.2707 28.9526 49.2707 29.9031C49.2707 32.9147 51.712 35.3599 54.7273 35.3599H64.0265C67.0381 35.3599 69.4831 37.8013 69.4831 40.8167" stroke="url(#paint6_linear_6111_16958)" stroke-width="3" stroke-miterlimit="10" stroke-linejoin="bevel"/>
<path d="M14.1543 14.1504C-2.05143 30.3568 -2.05143 56.6382 14.1543 72.8446C30.36 89.0511 56.6402 89.0511 72.8459 72.8446" stroke="url(#paint7_angular_6111_16958)" stroke-width="3" stroke-miterlimit="10"/>
<path d="M72.844 72.8491C89.0497 56.6426 89.0497 30.3612 72.844 14.1548C56.6383 -2.05161 30.3581 -2.05161 14.1523 14.1548" stroke="url(#paint8_angular_6111_16958)" stroke-width="3" stroke-miterlimit="10"/>
<defs>
<linearGradient id="paint0_linear_6111_16958" x1="73.0011" y1="73.0001" x2="14.0011" y2="14.0001" gradientUnits="userSpaceOnUse">
<stop stop-color="#1F272E"/>
<stop offset="1" stop-color="#1F272E" stop-opacity="0"/>
</linearGradient>
<radialGradient id="paint1_angular_6111_16958" cx="0" cy="0" r="1" gradientUnits="userSpaceOnUse" gradientTransform="translate(48.5 48.5) rotate(90) scale(3.5 7.62919)">
<stop offset="0.497204" stop-color="#1F272E" stop-opacity="0"/>
<stop offset="0.808628" stop-color="#1F272E"/>
</radialGradient>
<radialGradient id="paint2_angular_6111_16958" cx="0" cy="0" r="1" gradientUnits="userSpaceOnUse" gradientTransform="translate(38.499 48) rotate(90) scale(2.5 18.936)">
<stop offset="0.501997" stop-color="#1F272E" stop-opacity="0"/>
<stop offset="0.873295" stop-color="#1F272E"/>
</radialGradient>
<linearGradient id="paint3_linear_6111_16958" x1="70.0781" y1="43.0977" x2="70.0781" y2="51.309" gradientUnits="userSpaceOnUse">
<stop stop-color="#1F272E"/>
<stop offset="1" stop-color="#1F272E" stop-opacity="0"/>
</linearGradient>
<linearGradient id="paint4_linear_6111_16958" x1="73.832" y1="43.0977" x2="73.832" y2="51.309" gradientUnits="userSpaceOnUse">
<stop stop-color="#1F272E"/>
<stop offset="1" stop-color="#1F272E" stop-opacity="0"/>
</linearGradient>
<linearGradient id="paint5_linear_6111_16958" x1="52" y1="14" x2="74" y2="41" gradientUnits="userSpaceOnUse">
<stop stop-color="#1F272E" stop-opacity="0"/>
<stop offset="1" stop-color="#1F272E"/>
</linearGradient>
<linearGradient id="paint6_linear_6111_16958" x1="41.7661" y1="19.0972" x2="56.6025" y2="47.8555" gradientUnits="userSpaceOnUse">
<stop stop-color="#1F272E" stop-opacity="0"/>
<stop offset="1" stop-color="#1F272E"/>
</linearGradient>
<radialGradient id="paint7_angular_6111_16958" cx="0" cy="0" r="1" gradientUnits="userSpaceOnUse" gradientTransform="translate(44.002 45.3771) rotate(-134.548) scale(45.6184 45.6085)">
<stop offset="0.494792" stop-color="#1F272E" stop-opacity="0"/>
<stop offset="1" stop-color="#1F272E"/>
</radialGradient>
<radialGradient id="paint8_angular_6111_16958" cx="0" cy="0" r="1" gradientUnits="userSpaceOnUse" gradientTransform="translate(44.4966 42.5) rotate(-138.312) scale(42.8526 42.8485)">
<stop offset="0.515625" stop-color="#1F272E"/>
<stop offset="1" stop-color="#1F272E" stop-opacity="0"/>
</radialGradient>
</defs>
</svg>
