<svg width="106" height="84" viewBox="0 0 106 84" fill="none" xmlns="http://www.w3.org/2000/svg">
<path d="M13.0159 24.6406H2V26.0937C2 28.0134 3.22646 29.7153 5.04836 30.3196L13.6646 33.1902" stroke="url(#paint0_angular_6111_16986)" stroke-width="3" stroke-miterlimit="10"/>
<path d="M89.3734 52.5029L75.5002 54.0404C68.0837 54.8625 60.6317 55.2713 53.1708 55.2713C45.7143 55.2713 38.2623 54.8581 30.8502 54.0404L16.9727 52.5029" stroke="url(#paint1_linear_6111_16986)" stroke-width="3" stroke-miterlimit="10"/>
<path d="M28.7031 2H40.1989" stroke="url(#paint2_linear_6111_16986)" stroke-width="3" stroke-miterlimit="10"/>
<path d="M66.0898 2H77.5901" stroke="url(#paint3_linear_6111_16986)" stroke-width="3" stroke-miterlimit="10"/>
<path d="M20.692 81.5952H9.15625V45.0549C9.15625 43.9528 9.43621 42.8641 9.96945 41.8954L26.1577 12.4783C27.1131 10.7453 28.9306 9.66992 30.908 9.66992H75.3847C77.3621 9.66992 79.184 10.7453 80.135 12.4783L96.3233 41.8954C96.8565 42.8641 97.1365 43.9484 97.1365 45.0549V81.5952H85.6007H85.5918L83.2367 75.6273C82.6101 74.0409 81.0815 73.0011 79.3751 73.0011H26.8954" stroke="url(#paint4_angular_6111_16986)" stroke-width="3" stroke-miterlimit="10"/>
<path d="M92.9829 24.6406H103.999V26.0937C103.999 28.0134 102.772 29.7153 100.95 30.3196C100.95 30.3196 82.1136 37.1718 53.1631 36.3852C36.1394 35.9231 22.524 34.4434 16.9961 33.7635" stroke="url(#paint5_linear_6111_16986)" stroke-width="3" stroke-miterlimit="10"/>
<defs>
<radialGradient id="paint0_angular_6111_16986" cx="0" cy="0" r="1" gradientUnits="userSpaceOnUse" gradientTransform="translate(13 31) rotate(-90) scale(6 6.37378)">
<stop offset="0.28328" stop-color="#1F272E"/>
<stop offset="0.800368" stop-color="#1F272E"/>
<stop offset="1" stop-color="#1F272E" stop-opacity="0"/>
</radialGradient>
<linearGradient id="paint1_linear_6111_16986" x1="80.6359" y1="55.1663" x2="16.9751" y2="55.1663" gradientUnits="userSpaceOnUse">
<stop stop-color="#1F272E" stop-opacity="0"/>
<stop offset="1" stop-color="#1F272E"/>
</linearGradient>
<linearGradient id="paint2_linear_6111_16986" x1="28.501" y1="2" x2="40.001" y2="2" gradientUnits="userSpaceOnUse">
<stop stop-color="#1F272E"/>
<stop offset="1" stop-color="#1F272E" stop-opacity="0"/>
</linearGradient>
<linearGradient id="paint3_linear_6111_16986" x1="65.8876" y1="2" x2="77.3921" y2="2" gradientUnits="userSpaceOnUse">
<stop stop-color="#1F272E"/>
<stop offset="1" stop-color="#1F272E" stop-opacity="0"/>
</linearGradient>
<radialGradient id="paint4_angular_6111_16986" cx="0" cy="0" r="1" gradientUnits="userSpaceOnUse" gradientTransform="translate(42.502 38.5) rotate(116.301) scale(48.5232 59.3544)">
<stop stop-color="#1F272E"/>
<stop offset="1" stop-color="#1F272E" stop-opacity="0"/>
</radialGradient>
<linearGradient id="paint5_linear_6111_16986" x1="93.499" y1="36" x2="16.999" y2="36" gradientUnits="userSpaceOnUse">
<stop stop-color="#1F272E"/>
<stop offset="1" stop-color="#1F272E" stop-opacity="0"/>
</linearGradient>
</defs>
</svg>
