<svg width="200" height="200" viewBox="0 0 356 356" fill="none" xmlns="http://www.w3.org/2000/svg">
<path d="M354 178C354 80.7979 275.202 2 178 2" stroke="url(#paint0_radial_5909_15446)" stroke-width="4"/>
<path d="M178 354C275.202 354 354 275.202 354 178" stroke="url(#paint1_radial_5909_15446)" stroke-width="4"/>
<path d="M2.00002 178C2.00001 275.202 80.7979 354 178 354" stroke="url(#paint2_radial_5909_15446)" stroke-width="4"/>
<path d="M178 2.00003C80.7979 2.00002 2.00001 80.7979 2 178" stroke="url(#paint3_radial_5909_15446)" stroke-width="4"/>
<g clip-path="url(#clip0_5909_15446)">
<rect x="112" y="96" width="4" height="164" fill="url(#paint4_linear_5909_15446)"/>
</g>
<g clip-path="url(#clip1_5909_15446)">
<rect x="117.998" y="263.463" width="4" height="164" transform="rotate(-120 117.998 263.463)" fill="url(#paint5_linear_5909_15446)"/>
<rect x="260.025" y="181.463" width="4" height="164" transform="rotate(-120 260.025 181.463)" fill="url(#paint6_linear_5909_15446)"/>
</g>
<g clip-path="url(#clip2_5909_15446)">
<rect x="260.027" y="174" width="4" height="164" transform="rotate(120 260.027 174)" fill="url(#paint7_linear_5909_15446)"/>
<rect x="117.999" y="92" width="4" height="164" transform="rotate(120 117.999 92)" fill="url(#paint8_linear_5909_15446)"/>
</g>
<defs>
<radialGradient id="paint0_radial_5909_15446" cx="0" cy="0" r="1" gradientUnits="userSpaceOnUse" gradientTransform="translate(354 178) rotate(-135) scale(248.902 249.756)">
<stop stop-color="white"/>
<stop offset="1" stop-color="white" stop-opacity="0"/>
</radialGradient>
<radialGradient id="paint1_radial_5909_15446" cx="0" cy="0" r="1" gradientUnits="userSpaceOnUse" gradientTransform="translate(178 354) rotate(-45) scale(248.902 249.756)">
<stop stop-color="white"/>
<stop offset="1" stop-color="white" stop-opacity="0"/>
</radialGradient>
<radialGradient id="paint2_radial_5909_15446" cx="0" cy="0" r="1" gradientUnits="userSpaceOnUse" gradientTransform="translate(2.00002 178) rotate(45) scale(248.902 249.756)">
<stop stop-color="white"/>
<stop offset="1" stop-color="white" stop-opacity="0"/>
</radialGradient>
<radialGradient id="paint3_radial_5909_15446" cx="0" cy="0" r="1" gradientUnits="userSpaceOnUse" gradientTransform="translate(178 2.00002) rotate(135) scale(248.902 249.756)">
<stop stop-color="white"/>
<stop offset="1" stop-color="white" stop-opacity="0"/>
</radialGradient>
<linearGradient id="paint4_linear_5909_15446" x1="114" y1="96" x2="114" y2="260" gradientUnits="userSpaceOnUse">
<stop stop-color="white"/>
<stop offset="1" stop-color="white" stop-opacity="0"/>
</linearGradient>
<linearGradient id="paint5_linear_5909_15446" x1="119.998" y1="263.463" x2="119.998" y2="427.463" gradientUnits="userSpaceOnUse">
<stop stop-color="white"/>
<stop offset="1" stop-color="white" stop-opacity="0"/>
</linearGradient>
<linearGradient id="paint6_linear_5909_15446" x1="262.025" y1="181.463" x2="262.025" y2="345.463" gradientUnits="userSpaceOnUse">
<stop stop-color="white"/>
<stop offset="1" stop-color="white" stop-opacity="0"/>
</linearGradient>
<linearGradient id="paint7_linear_5909_15446" x1="262.027" y1="174" x2="262.027" y2="338" gradientUnits="userSpaceOnUse">
<stop stop-color="white"/>
<stop offset="1" stop-color="white" stop-opacity="0"/>
</linearGradient>
<linearGradient id="paint8_linear_5909_15446" x1="119.999" y1="92" x2="119.999" y2="256" gradientUnits="userSpaceOnUse">
<stop stop-color="white"/>
<stop offset="1" stop-color="white" stop-opacity="0"/>
</linearGradient>
<clipPath id="clip0_5909_15446">
<rect width="4" height="164" fill="white" transform="translate(112 96)"/>
</clipPath>
<clipPath id="clip1_5909_15446">
<rect width="4" height="164" fill="white" transform="translate(117.999 263.464) rotate(-120)"/>
</clipPath>
<clipPath id="clip2_5909_15446">
<rect width="4" height="164" fill="white" transform="translate(260.027 174) rotate(120)"/>
</clipPath>
</defs>
</svg>
